<svg xmlns="http://www.w3.org/2000/svg" viewBox="0 0 520 440" role="img" aria-label="Ilustración arquitectónica de bloques terracota que forman una nueva construcción">
          <defs><pattern id="plan-grid" width="32" height="32" patternUnits="userSpaceOnUse"><path d="M32 0H0V32" fill="none" stroke="#d5d8cb" stroke-width=".65"/></pattern></defs>
          <rect width="520" height="440" fill="url(#plan-grid)"/>
          <g fill="none" stroke="#9da594" stroke-width="1" stroke-dasharray="4 5"><path d="M55 322L261 425 476 314M261 425V86M58 322V172M476 314V176"/></g>
          <g stroke="#f1ddd0" stroke-width="1.2" stroke-linejoin="round">
            <path d="M96 278l164-83 164 83-164 83z" fill="#decbb7"/><path d="M96 278v42l164 83v-42z" fill="#b2a18e"/><path d="M260 361l164-83v42l-164 83z" fill="#c7b5a0"/>
            <path d="M105 217l75-38 155 78-75 38z" fill="#d99a7b"/><path d="M105 217v50l155 78v-50z" fill="#ad5138"/><path d="M260 295l75-38v50l-75 38z" fill="#813e2d"/>
            <path d="M187 175l75-38 155 78-75 38z" fill="#d99a7b"/><path d="M187 175v50l155 78v-50z" fill="#ad5138"/><path d="M342 253l75-38v50l-75 38z" fill="#813e2d"/>
            <path d="M105 153l155-78 75 38-155 78z" fill="#e4b092"/><path d="M105 153v50l75 38v-50z" fill="#ad5138"/><path d="M180 191l155-78v50l-155 78z" fill="#98452f"/>
            <path d="M268 199l75-38 74 37-75 38z" fill="#eee4d3"/><path d="M268 199v50l74 37v-50z" fill="#b9b79e"/><path d="M342 236l75-38v50l-75 38z" fill="#989e86"/>
          </g>
          <g stroke="#687565" fill="none"><path d="M119 95l130-65m-136 59 12 12m118-77 12 12M441 225v82m-6-82h12m-12 82h12"/></g>
          <g fill="#687565" font-family="monospace" font-size="10"><text x="164" y="47" transform="rotate(-27 164 47)">NUEVAS POSIBILIDADES</text><text x="452" y="272">01</text></g>
        </svg>
